<?xml version="1.0" encoding="UTF-8" standalone="no"?>
<svg width="306px" height="80px" viewBox="0 0 306 80" version="1.1" xmlns="http://www.w3.org/2000/svg" xmlns:xlink="http://www.w3.org/1999/xlink" xmlns:sketch="http://www.bohemiancoding.com/sketch/ns">
    <!-- Generator: Sketch 3.0.4 (8054) - http://www.bohemiancoding.com/sketch -->
    <title>purple</title>
    <desc>Created with Sketch.</desc>
    <defs></defs>
    <g id="Page-1" stroke="none" stroke-width="1" fill="none" fill-rule="evenodd" sketch:type="MSPage">
        <g id="heroku-logotype-horizontal-purple" sketch:type="MSLayerGroup" transform="translate(-36.000000, -36.000000)" fill="#ECF0F1">
            <g id="purple" transform="translate(36.000000, 36.000000)" sketch:type="MSShapeGroup">
                <g id="logotype_horizontal">
                    <g id="Group">
                        <path d="M64.8,0 L7.2,0 C3.2,0 -7.10542736e-15,3.2 -7.10542736e-15,7.2 L-7.10542736e-15,72.8 C-7.10542736e-15,76.8 3.2,80 7.2,80 L64.8,80 C68.8,80 72,76.8 72,72.8 L72,7.2 C72,3.2 68.8,0 64.8,0 L64.8,0 Z M68,72.8 C68,74.6 66.6,76 64.8,76 L7.2,76 C5.4,76 4,74.6 4,72.8 L4,7.2 C4,5.4 5.4,4 7.2,4 L64.8,4 C66.6,4 68,5.4 68,7.2 L68,72.8 L68,72.8 Z" id="Shape"></path>
                        <path d="M18,68 L27,60 L18,52 L18,68 Z" id="Shape"></path>
                        <path d="M50.5,35.6 C48.9,33.9 45.9,32 41,32 C35.6,32 30,33.4 26,34.7 L26,12 L18,12 L18,46.7 L23.7,44.1 C23.8,44.1 32.9,40 41,40 C45.1,40 46,42.2 46,44.1 L46,68 L54,68 L54,44 C54,43.5 54,39.1 50.5,35.6 L50.5,35.6 Z" id="Shape"></path>
                        <path d="M40,25 L48,25 C51.6,20.9 53.5,16.5 54,12 L46,12 C45.1,16.5 43.1,20.9 40,25 L40,25 Z" id="Shape"></path>
                    </g>
                    <g id="Group" transform="translate(90.000000, 12.000000)">
                        <path d="M22,16.1 C17.5,16.1 11.8,17.3 8,18.8 L8,0 L0,0 L0,56 L8,56 L8,25.6 C11.9,23.8 17.4,22.9 20.9,22.9 C22.6,22.9 24.1,23.8 24.1,25.9 L24.1,56 L32,56 L32,27 C32,20.7 29.3,16.1 22,16.1 L22,16.1 Z" id="Shape"></path>
                        <path d="M56.1,16 C49.4,16 44,16.8 40,18.4 C38.5,23.9 38,29.5 38,36.1 C38,48.2 40.1,56 53.4,56 C59.6,56 64.8,54.1 69.1,52.1 L67.8,45.9 C63.8,47.5 58.6,49.1 54,49.1 C48.1,49.1 46.3,47.9 46,38.1 L70,38.1 L70,33.9 C70,22.8 66.4,16 56.1,16 L56.1,16 Z M46,32 C46.1,27.8 46.7,23.7 46.7,23.7 C46.7,23.7 50.7,22.9 56.1,22.9 C61.5,22.9 63,26.3 63,32 L46,32 L46,32 Z" id="Shape"></path>
                        <path d="M208,16 L208,46 C208,46 202.4,49 195,49 C193.3,49 192,48.3 192,46.2 L192,16 L184,16 L184,45.2 C184,51.5 187.3,56 194,56 C205.6,56 216,50 216,50 L216,16 L208,16 L208,16 Z" id="Shape"></path>
                        <path d="M120,16 C109.4,16 102,21.6 102,36.2 C102,50 107.6,56 120,56 C130.6,56 138,50.4 138,35.8 C138,22 132.4,16 120,16 L120,16 Z M120,50 C113.3,50 110.1,45.6 110.1,35.9 C110.1,25.7 114.3,22 120,22 C126.7,22 129.9,26.4 129.9,36.1 C129.9,46.3 125.7,50 120,50 L120,50 Z" id="Shape"></path>
                        <path d="M76,56 L84,56 L84,26 C86.9,24.4 91.7,23.1 98,23 L98,16.1 C85.3,16.1 76,22 76,22 L76,56 L76,56 Z" id="Shape"></path>
                        <path d="M164.5,34.7 C169.7,27.9 174,21.6 176.4,16 L168.1,16 C165.3,21.9 161.9,27.3 158,32 L152,32 L152,0 L144,0 L144,56 L152,56 L152,38 L158,38 C161.9,42.8 165.7,48.6 169.6,56 L178,56 C174.2,48.4 169.9,41.2 164.5,34.7 L164.5,34.7 Z" id="Shape"></path>
                    </g>
                </g>
            </g>
        </g>
    </g>
</svg>